<svg xmlns="http://www.w3.org/2000/svg" viewBox="0 0 64 64" role="img" aria-label="CloudBerry">
  <rect width="64" height="64" rx="14" fill="#071626"/>
  <circle cx="32" cy="29" r="24" fill="#5ecfff"/>
  <path d="M17 36h31c5 0 9-4 9-9s-4-9-9-9h-1c-2-7-8-12-16-12-9 0-16 6-17 15-5 1-9 5-9 10 0 3 2 5 5 5h7z" fill="#f8fbff"/>
  <path d="M15 36h31c5 0 9-4 9-9 0-1 0-2-1-3-2 4-5 6-10 6H14c-3 0-6-1-8-3v2c0 4 3 7 9 7z" fill="#dbeafe" opacity="0.82"/>
  <rect x="37" y="34" width="10" height="10" rx="3" fill="#f59e0b"/>
  <rect x="45" y="33" width="10" height="10" rx="3" fill="#fb923c"/>
  <rect x="41" y="42" width="10" height="10" rx="3" fill="#f97316"/>
  <rect x="48" y="42" width="8" height="8" rx="2" fill="#ea580c"/>
  <rect x="46" y="25" width="7" height="10" rx="2" fill="#65a30d"/>
  <path d="M49 25c3-5 7-6 11-4-1 5-5 8-11 8z" fill="#84cc16"/>
  <path d="M41 27c-4-4-7-4-10-2 1 4 4 6 10 6z" fill="#65a30d"/>
  <path d="M22 34c1 3 4 5 9 5 4 0 7-2 9-5" fill="none" stroke="#071626" stroke-width="4" stroke-linecap="round"/>
</svg>
